/* XPM */
static char *result[] = {
/* columns rows colors chars-per-pixel */
"50 50 82 1 ",
"  c #343433",
". c #333B33",
"X c #3B3B33",
"o c #3E3E39",
"O c #473D33",
"+ c #334333",
"@ c #334D33",
"# c #3D4138",
"$ c #3F4A39",
"% c #335433",
"& c #335A33",
"* c #336633",
"= c #376835",
"- c #434333",
"; c #4F4633",
": c #434933",
"> c #4C4C33",
", c #43433B",
"< c #49493E",
"1 c #534633",
"2 c #5D4834",
"3 c #4F5236",
"4 c #545433",
"5 c #5A5433",
"6 c #5B5B33",
"7 c #655435",
"8 c #6D5733",
"9 c #635F33",
"0 c #695C33",
"q c #7A5D38",
"w c #416D3A",
"e c #656533",
"r c #6C6633",
"t c #736533",
"y c #7A6633",
"u c #4D4D40",
"i c #545444",
"p c #505942",
"a c #5B5B47",
"s c #5E5E48",
"d c #4E7441",
"f c #557744",
"g c #5F7C49",
"h c #63634B",
"j c #626E4A",
"k c #6A6A4F",
"l c #607D4A",
"z c #6E6E50",
"x c #747453",
"c c #7A7A57",
"v c #7E7E59",
"b c #805F33",
"n c #8A5F34",
"m c #846633",
"M c #8C6633",
"N c #946633",
"B c #986633",
"V c #996A37",
"C c #996C39",
"Z c #95723F",
"A c #99713E",
"S c #997542",
"D c #997A47",
"F c #977F4C",
"G c #6A824F",
"H c #768754",
"J c #768855",
"K c #7C8A57",
"L c #878756",
"P c #8A8054",
"I c #84845B",
"U c #848E5B",
"Y c #8B8B5E",
"T c #958555",
"R c #998A57",
"E c #8A915F",
"W c #8B995F",
"Q c #8E9360",
"! c #959564",
"~ c #999461",
"^ c #969865",
"/ c #999966",
/* pixels */
"/////////////////xxo.++@++@++ ,xc^^///////////////",
"///////////////x#..&**********%..oI///////////////",
"////////^^^zsaa.&****************&.aaav///////////",
"////////QI .+++********************+.+. I/////////",
"////////j .****************************.oI////////",
"///////Y +******************************+ !^//////",
"//////!o.*******************************&.uY//////",
"/////IX %*******************************=. u!^////",
"////I .+**********************************+. I////",
"////#.*************************************&.i////",
"///h @***=**********************************@ v^//",
"//YX&***************************************=@o^//",
"//a+******************************************.h//",
"// @******************************************.#//",
"// @******************************************.o//",
"// %******************************************+u//",
"/^.@******************************************+#//",
"/^.@******************************************.#//",
"// @******************************************.o//",
"//.@*************************=****************+u//",
"// @******************************************+#//",
"// @******************************************.#//",
"//z *****************************************& x//",
"/^Y &****************************************@ ^//",
"//!i **************************************** z^//",
"///h %**************************************% F///",
"///!o.**************************************.u^///",
"////x +************************************. x////",
"/////,..&********************************&  </////",
"/////!u .*******************************&  a^/////",
"////^J@;. ******************************  <&Q/////",
"////^xqF.+**=***************************  T7L/////",
"////h0SM   &**************************%   NV6z////",
"////$0Mq    .&%&&&&************%&&&&&     MM93////",
"////U%oX           .@********+.           XX&E////",
"////^K@++   4e.eet;  ;      : X1teeOe>  .++&W/////",
"/////K=**& XXXX-erNrX69e999e>XtNreXX+X  ****E/////",
"/////Qw=**Xtmmr39etN86yteeyt;yNre44tmm0 ***f^/////",
"//////l=**X6rNBr>6eeM#rteem9>Nee44tBN06 **=H//////",
"//////^=**O6-rNMeXeerO#X+O+O>teeXeNMr:6X**w///////",
"///////E&:yr9>eye 9r>Xeeeee9X3e6Xem9>ety:&^///////",
"///////Y4E~Ze>6ee  X-etNNNNreX  .ee45rT~L-^///////",
"///////Yk^DVe> : %% -eyyyyyye .%@X: 6rAD/u^///////",
"///////Y2MMt4 .@***+Xe4----6e @***+. 6yMMO^///////",
"///////E+X#O @******@X6yMMt4 %******. X#X@^///////",
"//////////////lw****&.eM~Ry9.*****wG//////////////",
"////////////////WUw**+eNVBB6%*=w~~////////////////",
"///////////////////Hl%XrBNr.&GK///////////////////",
"/////////////////////l+>56X+J/////////////////////",
"//////////////////////H+  %U//////////////////////"
};
