/* XPM */
static char *result[] = {
/* columns rows colors chars-per-pixel */
"50 50 192 2 ",
"   c #010101",
".  c #0A0605",
"X  c #030C04",
"o  c #0D0C0A",
"O  c #130B07",
"+  c #150C0A",
"@  c #1B0F0C",
"#  c #081A08",
"$  c #161610",
"%  c #351E0F",
"&  c #281B14",
"*  c #08250D",
"=  c #0B330A",
"-  c #083B14",
";  c #37291B",
":  c #232C2E",
">  c #26373B",
",  c #402412",
"<  c #482916",
"1  c #49351C",
"2  c #5E351A",
"3  c #693C1D",
"4  c #4B2920",
"5  c #423427",
"6  c #563020",
"7  c #593B32",
"8  c #623924",
"9  c #0D430D",
"0  c #0B4F1B",
"q  c #1F5825",
"w  c #0E6622",
"e  c #0F7327",
"r  c #197927",
"t  c #107B29",
"y  c #25782D",
"u  c #247E32",
"i  c #387134",
"p  c #515101",
"a  c #464118",
"s  c #494118",
"d  c #5C4F22",
"f  c #4B5824",
"g  c #5B5223",
"h  c #4C4C33",
"j  c #534B34",
"k  c #4D5837",
"l  c #545136",
"z  c #53593A",
"x  c #5E5E3F",
"c  c #6D452A",
"v  c #734120",
"b  c #784623",
"n  c #7C4C26",
"m  c #794D2A",
"M  c #64453C",
"N  c #51653C",
"B  c #517735",
"V  c #67613D",
"C  c #315273",
"Z  c #594D49",
"A  c #6D4D41",
"S  c #4E6F51",
"D  c #626242",
"F  c #6D6944",
"G  c #6E6E4A",
"H  c #746F49",
"J  c #6F744C",
"K  c #75754E",
"L  c #7D7553",
"P  c #7A7951",
"I  c #6F6F6E",
"U  c #717172",
"Y  c #84542A",
"T  c #8C5E35",
"R  c #90622C",
"E  c #8E6037",
"W  c #956A37",
"Q  c #976C38",
"!  c #9E7737",
"~  c #A87638",
"^  c #856C42",
"/  c #946946",
"(  c #94754E",
")  c #9E7B54",
"_  c #A47B41",
"`  c #A87E44",
"'  c #A67C56",
"]  c #1C8328",
"[  c #278226",
"{  c #218A29",
"}  c #328723",
"|  c #378C23",
" . c #2D9429",
".. c #369B29",
"X. c #3B9F29",
"o. c #3DA029",
"O. c #4D8D27",
"+. c #439D28",
"@. c #41A429",
"#. c #538244",
"$. c #548947",
"%. c #7B9158",
"&. c #70AC7C",
"*. c #B39715",
"=. c #ABAB11",
"-. c #97803E",
";. c #AB853C",
":. c #AF8B39",
">. c #B38C35",
",. c #B89735",
"<. c #B2A82B",
"1. c #CCBA0C",
"2. c #C4A92A",
"3. c #CEB823",
"4. c #D1BC21",
"5. c #E5BF3F",
"6. c #D3C30A",
"7. c #DDCD19",
"8. c #D9D515",
"9. c #E6DD06",
"0. c #E7D817",
"q. c #C6E00A",
"w. c #ECE30D",
"e. c #F3EE07",
"r. c #E6F305",
"t. c #F8F406",
"y. c #FEFE01",
"u. c #F3E01E",
"i. c #EED42B",
"p. c #E7C33B",
"a. c #8B8B5C",
"s. c #988956",
"d. c #97915E",
"f. c #B78C47",
"g. c #AA8956",
"h. c #B18950",
"j. c #8E8E60",
"k. c #859D63",
"l. c #919160",
"z. c #949567",
"x. c #999966",
"c. c #A88C63",
"v. c #AD9B6A",
"b. c #B99469",
"n. c #BC9770",
"m. c #BF9A73",
"M. c #B7A67A",
"N. c #CB9A4C",
"B. c #D4A44C",
"V. c #D7A849",
"C. c #D3A954",
"Z. c #DEAC52",
"A. c #E3B945",
"S. c #C09C6B",
"D. c #C39F72",
"F. c #C7A37D",
"G. c #C9A67D",
"H. c #3B5593",
"J. c #32539D",
"K. c #455E9C",
"L. c #56718C",
"P. c #4863A1",
"I. c #576DA1",
"U. c #71B180",
"Y. c #4CA9B2",
"T. c #6EB2B8",
"R. c #51D0AE",
"E. c #81B596",
"W. c #CCAC84",
"Q. c #D0AF87",
"!. c #CCB38C",
"~. c #D2B185",
"^. c #D5B48B",
"/. c #DCBD94",
"(. c #DEBF98",
"). c #DBC399",
"_. c #E4C69B",
"`. c #EBCEA5",
"'. c #EFD3AA",
"]. c #ECD4AB",
"[. c #F1D5AD",
"{. c #F5DAAF",
"}. c #F5DAB0",
"|. c #F9DFB6",
" X c #FFE6BD",
".X c #FFEED2",
"XX c #D4D9E6",
"oX c #E7E7E7",
"OX c #E8E9ED",
"+X c #E5E9F2",
"@X c #F5F7F5",
"#X c #FFFEFD",
/* pixels */
"x.x.x.x.x.x.x.x.x.x.x.x.x.x.x.x.x.x.x.x.x.x.x.x.x.x.x.x.x.x.x.x.x.x.x.x.x.x.x.x.x.x.x.x.x.x.x.x.x.x.",
"x.x.x.x.x.x.x.x.x.x.x.x.x.x.x.x.x.x.x.x.x.x.x.x.x.x.x.x.x.x.x.x.x.x.x.x.x.x.x.x.x.x.x.x.x.x.x.x.x.x.",
"x.x.x.x.x.x.x.x.x.x.x.x.x.x.x.x.x.x.x.x.x.x.x.x.x.x.x.x.x.x.x.x.x.x.x.x.x.x.x.x.x.x.x.x.x.x.x.x.x.x.",
"x.x.x.x.x.x.x.x.x.x.x.x.x.x.x.x.x.x.x.x.x.x.x.x.x.x.x.x.x.x.x.x.x.x.x.x.x.x.x.x.x.x.x.x.x.x.x.x.x.x.",
"x.x.x.x.x.x.x.x.x.x.x.x.x.x.x.x.x.x.x.x.x.x.x.x.x.x.x.x.x.x.x.x.x.x.x.x.x.x.x.x.x.x.x.x.x.x.x.x.x.x.",
"x.x.x.x.x.x.x.x.x.x.x.x.x.x.x.x.x.D h #.$.$.$.$.$.$.$.#.k F x.x.x.x.x.x.x.x.x.x.x.x.x.x.x.x.x.x.x.x.",
"x.x.x.x.x.x.x.x.x.x.x.x.x.x.x.x.x.D * ] ] { { { ] ] ] r * D x.x.x.x.x.x.x.x.x.x.x.x.x.x.x.x.x.x.x.x.",
"x.x.x.x.x.x.x.x.x.x.x.x.x.x.x.D h ] t ..o.@.o.@.@.@.o...t r h D x.x.x.x.x.x.x.x.x.x.x.x.x.x.x.x.x.x.",
"x.x.x.x.x.x.x.x.x.x.x.x.x.x.x.N - t ] { {  . . . . .{ { ] e - N z.x.x.x.x.x.x.x.x.x.x.x.x.x.x.x.x.x.",
"x.x.x.x.x.x.x.x.x.x.x.x.x.x h [ t t t t t t e t t ] t ] t t t ] h D x.x.x.x.x.x.x.x.x.x.x.x.x.x.x.x.",
"x.x.x.x.x.x.x.x.x.x.x.a.J q 0  . . . ... . . . . . . ... ... . .0 q K a.x.x.x.x.x.x.x.x.x.x.x.x.x.x.",
"x.x.x.x.x.x.x.x.x.x.x.h X t t @.o.o.@.@.@.@.o.o.o.o.o.@.o.@.o.o.t t X h x.x.x.x.x.x.x.x.x.x.x.x.x.x.",
"x.x.x.x.x.x.x.x.x.x.x.h # X.X.s.-.r.r.r.r.<.! s.-.<.r.8.s.s.! -.o.o.X h x.x.x.x.x.x.x.x.x.x.x.x.x.x.",
"x.x.x.x.x.x.x.x.x.x.x.h # @.@.~ ;.y.y.y.y.<.` ` _ 2.y.w.;.! _ ! o.o.X h x.x.x.x.x.x.x.x.x.x.x.x.x.x.",
"x.x.x.x.x.x.x.x.x.D N u y _ _ ! _ y.y.:._ 0.y.4._ 2.y.y.y.t._ _ _ ` r u N D x.x.x.x.x.x.x.x.x.x.x.x.",
"x.x.x.x.x.x.x.x.x.h * r i ;.h.;.;.t.t.,.;.8.t.4.:.2.y.t.t.e.;.;._ ~ y r * j x.x.x.x.x.x.x.x.x.x.x.x.",
"x.x.x.x.d.g.v.M.d.m v v Y Z.Z.y.y.Z.Z.t.y.<.` 4.y.u.Z.B._ ;.y.y._ _ b v v m g.M.v.s.d.x.x.x.x.x.x.x.",
"x.x.x.x.s.Q D.(.n./ T m R 5.p.w.w.p.5.0.w.,._ 4.y.u.B.N.g.f.w.w.,.,.Y n E / n.).F.W s.x.x.x.x.x.x.x.",
"x.x.x.x.( v W.|. X X_.;.>.y.y._ _ y.y.:.~ _ _ 3.y.7.~ h.^.Q._ _ y.y.;.` _. X X XG.m s.x.x.x.x.x.x.x.",
"x.x.x.x.l.a.c.W./.'.~.R ! 7.7.f.f.y.y.3.2.N.f.2.1.2.b.b._.)._ _ u.u.;.~ ).'.).G.c.d.x.x.x.x.x.x.x.x.",
"x.x.x.x.x.x.d.^ ) ^.b.3 n ~ h.Z.Z.y.y.y.y.p.Z.~ 3 / ^./. X}._ _ Z.Z.` ` G.^.s.W l.x.x.x.x.x.x.x.x.x.",
"x.x.x.x.x.x.x.x.z.T.E.*.*.T Y Z.Z.i.i.4.4.>.~ ` ' D.`.'. X|.S.b.~ ~ 4.4.T.T.z.x.x.x.x.x.x.x.x.x.x.x.",
"x.x.x.x.x.x.x.x.x.Y.R.y.9.v b Z.Z.Z.Z.h.~ Y 3 ' ^.`. X X X X^.^.v 3 e.y.R.Y.x.x.x.x.x.x.x.x.x.x.x.x.",
"x.x.x.x.x.x.x.x.x.S B y.w.Q E 1 1 h.f.Y m g.b.^.[.`._.~.( ( 5 5 W W e.y.i S x.x.x.x.x.x.x.x.x.x.x.x.",
"x.x.x.x.x.x.x.x.x.h p y.w._ !     _ ` m 3 b.~.`..X`.^.D.3 3     _ _ t.y.1 h x.x.x.x.x.x.x.x.x.x.x.x.",
"x.x.x.x.x.x.x.x.x.h 1 A.N.b m oXoXK.H.c v W. X X X~.m A H.K.oXoXb n V.A.% h x.x.x.x.x.x.x.x.x.x.x.x.",
"x.x.x.x.x.x.x.x.x.x F C.N.v n #X#XJ.J.8 v ^. X X XW.3 M J.P.#X#Xb 3 B.C.V N x.x.x.x.x.x.x.x.x.x.x.x.",
"x.x.x.x.x.x.x.x.x.x.x.h     o  X XJ.J.+X#X.X X X X.X#XXXJ.K. X X      h x.x.x.x.x.x.x.x.x.x.x.x.x.x.",
"x.x.x.x.x.x.x.x.x.x.x.G z $ . {.}.P.P.OX#X.X X X X.X#XXXP.I.[.{.  $ z G x.x.x.x.x.x.x.x.x.x.x.x.x.x.",
"x.x.x.x.x.x.x.x.x.x.x.x.x.h . _ _  X X X X X X X X X X X.X[._ ~   h x.x.x.x.x.x.x.x.x.x.x.x.x.x.x.x.",
"x.x.x.x.x.x.x.x.x.x.x.x.x.k * W W /./.[.}.}.{.}.{.{.}.]./.^.Q Q * k x.x.x.x.x.x.x.x.x.x.x.x.x.x.x.x.",
"x.x.x.x.x.x.x.x.x.x.x.D k u r b 3 v v G.^.^.^.^.^.^.^.m.v v v v t [ h x x.x.x.x.x.x.x.x.x.x.x.x.x.x.",
"x.x.x.x.x.x.x.x.x.x.j.> > U.&.s 1 f f %.k.k.%.k.k.&.k.%.f f a s &.&.& ; l.x.x.x.x.x.x.x.x.x.x.x.x.x.",
"x.x.x.x.x.x.x.x.x.D : C L.#X@X9 9 t t t t ] t t ] t t e t e 9 9 #X#X7 4 & x x.x.x.x.x.x.x.x.x.x.x.x.",
"x.x.x.x.x.x.x.a.H 1 4 Z Z U I a a t t t t t t t t t t t t r a s U U 7 2 < 1 G d.x.x.x.x.x.x.x.x.x.x.",
"x.x.x.x.x.x.a.$ % v v v 2     v v t t t t t t t t t t t t r v v     3 v b 3 % $ a.x.x.x.x.x.x.x.x.x.",
"x.x.x.x.x.x.P   j m.G.).W.= - O.O.g d d g =.q.q.q.=.d d d g O.O.= = !.).F.m.j   P x.x.x.x.x.x.x.x.x.",
"x.x.x.x.x.x.a.h L W._. X).9 9 X.@.v v v v 6.y.y.y.1.v v v c @.@.9 9 ]. X_.W.L h a.x.x.x.x.x.x.x.x.x.",
"x.x.x.x.x.x.x.x.x.l o o o   X ] r @.@.r t ] ] ] ] ] e ] @.+.t t   X o o o l x.x.x.x.x.x.x.x.x.x.x.x.",
"x.x.x.x.x.x.x.x.x.x h h h $   t t @.@.r t t t t t t t ] @.o.t t   $ h h h x x.x.x.x.x.x.x.x.x.x.x.x.",
"x.x.x.x.x.x.x.x.x.x.x.x.x.h       t t X.o.@.@.@.@.@.o...t e       h x.x.x.x.x.x.x.x.x.x.x.x.x.x.x.x.",
"x.x.x.x.x.x.x.x.x.x.x.x.x.l O . o w w } | | | | | | | } w q . o O l x.x.x.x.x.x.x.x.x.x.x.x.x.x.x.x.",
"x.x.x.x.x.x.x.x.x.x.x.x l m 3 4 4                         X 4 4 v m l x x.x.x.x.x.x.x.x.x.x.x.x.x.x.",
"x.x.x.x.x.x.x.x.x.x.x.h + v v 6 6 @ +   $ D G G G D $   + @ 6 6 v v . j x.x.x.x.x.x.x.x.x.x.x.x.x.x.",
"x.x.x.x.x.x.x.x.x.x.x.h + v v v v < 4 X h x.x.x.x.x.h o < 4 b 3 v 3 O j x.x.x.x.x.x.x.x.x.x.x.x.x.x.",
"x.x.x.x.x.x.x.x.x.x.x.d.P 1 , , % & ; ( d.x.x.x.x.x.d.K ; & , , ; 1 P d.x.x.x.x.x.x.x.x.x.x.x.x.x.x.",
"x.x.x.x.x.x.x.x.x.x.x.x.x.x j h h h D x.x.x.x.x.x.x.z.x.x h h h h x x.x.x.x.x.x.x.x.x.x.x.x.x.x.x.x.",
"x.x.x.x.x.x.x.x.x.x.x.x.x.x.x.x.x.x.z.x.x.x.x.x.x.x.x.x.x.x.x.x.x.x.x.x.x.x.x.x.x.x.x.x.x.x.x.x.x.x.",
"x.x.x.x.x.x.x.x.x.x.x.x.x.x.x.x.x.x.x.x.x.x.x.x.x.x.x.x.x.x.x.x.x.x.x.x.x.x.x.x.x.x.x.x.x.x.x.x.x.x.",
"x.x.x.x.x.x.x.x.x.x.x.x.x.x.x.x.x.x.x.x.x.x.x.x.x.x.x.x.x.x.x.x.x.x.x.x.x.x.x.x.x.x.x.x.x.x.x.x.x.x."
};
