/* XPM */
static char *result[] = {
/* columns rows colors chars-per-pixel */
"50 50 191 2 ",
"   c #242A2D",
".  c #2A2C2F",
"X  c #2E332E",
"o  c #33362E",
"O  c #3A3B2F",
"+  c #2D2E32",
"@  c #2F3031",
"#  c #323232",
"$  c #373931",
"%  c #3B3B32",
"&  c #3A3438",
"*  c #3E3B39",
"=  c #453B3B",
"-  c #3C402E",
";  c #44452E",
":  c #464A2D",
">  c #494C2E",
",  c #4D522E",
"<  c #51552F",
"1  c #55592E",
"2  c #595C2F",
"3  c #464533",
"4  c #484733",
"5  c #474831",
"6  c #4B4A33",
"7  c #42423B",
"8  c #4F433B",
"9  c #534D38",
"0  c #53483B",
"q  c #555532",
"w  c #575931",
"e  c #5A5A32",
"r  c #5C553A",
"t  c #5B583C",
"y  c #615D37",
"u  c #60593A",
"i  c #6A5D3F",
"p  c #5E652C",
"a  c #62662F",
"s  c #64692E",
"d  c #656532",
"f  c #696636",
"g  c #676931",
"h  c #6A6933",
"j  c #6D633C",
"k  c #6F6938",
"l  c #726D37",
"z  c #71663E",
"x  c #72693B",
"c  c #777237",
"v  c #4C3B43",
"b  c #545444",
"n  c #585847",
"m  c #5C4747",
"M  c #654B4C",
"N  c #694E4E",
"B  c #6B5A43",
"V  c #675445",
"C  c #7C5F4F",
"Z  c #765A4E",
"A  c #6A4D51",
"S  c #6F5051",
"D  c #725252",
"F  c #795556",
"G  c #7C5A54",
"H  c #7D555A",
"J  c #5E614A",
"K  c #64654D",
"L  c #68684F",
"P  c #756542",
"I  c #796546",
"U  c #776940",
"Y  c #7C6945",
"T  c #7D654B",
"R  c #7F6948",
"E  c #7A7A57",
"W  c #7C7C58",
"Q  c #767654",
"!  c #81565C",
"~  c #835A5B",
"^  c #885B5F",
"/  c #81664E",
"(  c #836A4C",
")  c #8A6C4F",
"_  c #806B46",
"`  c #837540",
"'  c #8C7B43",
"]  c #8D714D",
"[  c #917E46",
"{  c #9A7E4F",
"}  c #90744C",
"|  c #856453",
" . c #8A6656",
".. c #866850",
"X. c #8A6B52",
"o. c #8D645B",
"O. c #91655E",
"+. c #996E5D",
"@. c #926B59",
"#. c #8F7250",
"$. c #927351",
"%. c #9B735B",
"&. c #9E7956",
"*. c #A17D57",
"=. c #A2775E",
"-. c #A37D59",
";. c #AB7F5F",
":. c #8D5E61",
">. c #875960",
",. c #956463",
"<. c #996666",
"1. c #9C6A65",
"2. c #9D666A",
"3. c #9E696A",
"4. c #936967",
"5. c #987166",
"6. c #956F71",
"7. c #997378",
"8. c #A1666D",
"9. c #A36A6B",
"0. c #A96E6C",
"q. c #A36E67",
"w. c #A67366",
"e. c #AD7C64",
"r. c #AC736B",
"t. c #AF7969",
"y. c #A87768",
"u. c #B57F64",
"i. c #B67E6A",
"p. c #B87E6D",
"a. c #B0776A",
"s. c #A46770",
"d. c #A97370",
"f. c #A37D7E",
"g. c #B07A70",
"h. c #B07D7E",
"j. c #81815A",
"k. c #A2884E",
"l. c #AF855C",
"z. c #B48C5B",
"x. c #B38D55",
"c. c #BE945D",
"v. c #BB9357",
"b. c #949463",
"n. c #999966",
"m. c #9F9F69",
"M. c #B48164",
"N. c #BA8665",
"B. c #BD8A64",
"V. c #B9826A",
"C. c #BA866B",
"Z. c #AC8278",
"A. c #BA837B",
"S. c #B78078",
"D. c #A1A169",
"F. c #C1955E",
"G. c #C18D65",
"H. c #C38A6B",
"J. c #C49263",
"K. c #C99666",
"L. c #CC9965",
"P. c #CF9B6A",
"I. c #CD9768",
"U. c #D19E65",
"Y. c #D49D69",
"T. c #C18D7A",
"R. c #C4917B",
"E. c #D7A069",
"W. c #D9A269",
"Q. c #A47E81",
"!. c #B57E82",
"~. c #B98586",
"^. c #B98689",
"/. c #B78F88",
"(. c #BD898C",
"). c #B69182",
"_. c #BA918B",
"`. c #C18B8C",
"'. c #CF9C80",
"]. c #CA9788",
"[. c #CE9B8B",
"{. c #D39E82",
"}. c #C18E92",
"|. c #C49194",
" X c #CA9397",
".X c #D09D92",
"XX c #D39E9F",
"oX c #D7A184",
"OX c #D9A285",
"+X c #E0A68A",
"@X c #DBA5A4",
/* pixels */
"d p z <.<.2.2.2.P p a p T 2.2.,.,.<.<.3.o.d p P ,.2.I p d o.2.2.2.,.<.<.2.T p a p P 2.2.2.,.<.<.<.<.",
" .|  .2.3. .j j G | | | :.,.,.2.o.j j P P | | o.<.,.:.| | P j j j | 2.<.,.:.| | | C j j  .2.2.<.<.<.",
"2.2.,./ / T P ' l.p.p.p.V.t.2.2. .k.[ ' { p.p.i.t.i.i.g.a.{ ' k.k.X.2.2.t.V.p.p.g.l.' I T R | ,.<...",
"<.2. .a d / r.J.c.c.c.c.c.z.O.o.%.J.c.J.c.c.c.c.c.c.c.c.c.c.c.c.J.=.o.O.z.F.c.c.F.F.B.t./ d a | T p ",
"<.2. .d  .V.J.k a d d d g g g d g d g d d d d g d d g d d g g d g d d g d d d d g d k F.V.o.d d d g ",
"2.<.,.o.2.X.l - # $ o o @ X X X X # o o X X X X X X X X @ @ X $ X o @ X @ X o o $ # - h @.2.o.o.T p ",
"P o.r.H.$.t O + - 9 A T X.X.X.) X...S Z X.X.X.) X.X.) X.X.) Z S ( X.X.) X.X./ A 9 - + - r $.H.r.O.T ",
"j I @.&.f - + % t X.i.P.W.W.E.W.W.E.3.C.W.W.W.W.W.W.W.E.E.W.C.9.Y.W.E.E.E.W.P.i.X.t - + O d &.1.2.2.",
"8.( 2 . . @ % d  .r.L.L.L.L.L.L.P.J.1.M.L.L.L.J.J.J.J.L.L.L.M.3.J.L.L.P.L.L.P.K.a. .f % @ + . H 9.<.",
"I.Y.k.# . ; f O.N.H.1.G.L.L.K.L.N.<.G.L.L.L.w.<.2.<.,.w.P.L.L.J.<.M.U.L.L.L.J.1.G.C.o.f ; + @ *.Y.P.",
"` ' P + : i O.B.L.N.,.G.L.L.L.M.y.B.L.L.J.w.M.B.B.B.B.M.w.J.L.L.B.y.M.U.L.L.J.,.N.P.N.@.i : # j ' ' ",
"p d , # i %.V.L.U.B.<.T.oX'.'.9.d.oX'.oXT.,.A.OXoXoXoXT.,.R.oXR.OXd.0.R.'.'.T.<.N.U.L.C.%.B # , p 2 ",
"d f q # H p.U.L.Y.C.<.^.|.}.}.1.5./.}. X^.<.Z._././._.Z.<.~.|.|./.1.5.|.}.}.^.<.C.P.L.U.V.! # q h g ",
"d g q $ H i.U.L.[.(.,.,.<.<.<.P p d o.2.<.<.P a d d d j <.<.2.o.f a P <.2.<.<.,.(.[.L.U.V.H # q g d ",
"% * $ # H u.Y..X!.o.f O.2.<.<.<./ a d | 2.2.,.O.O.,.,.,.2.2.| f d / ,.<.<.2.O.f  .~..XP.M.~ # $ % * ",
"+ + + # G h.].h.3.o./ P | 8.2.X.U g g x R R R R R R _ _ R _ z s g x X.8.8.| P T o.2.h.].S.H # @ + # ",
"+ @ . # ! A.].<.,.<.<.I Y  .F r < q q q w q , q < q q < < q q q q < r F | T I <.2.,.,.].A.~ # @ # @ ",
"$ $ $ # F M.J.<.,.<.<.2./ < X + @ + + + + + + + @ + @ + + + + @ + @ + @ < / <.<.<.<.1.G.M.G # # $ $ ",
"d d q # 1 _ 8.<.<.<.<.9.N X # # # + # # # # + # # @ # # @ @ @ # # # # # X N 8.<.<.,.<.8./ w # < d 2 ",
"x.v.} # < k P <.2.<.<.T 6 + # + * w e e 1 1 e 1 e e w q w q e e e % + # . 6 Y <.<.<.<.I h w # ] v.x.",
"{.+XZ.@ w a a T O.8.<.x > @ @ O t _ h x ( ( ( I g g P / R / U h _ u % + + : k <.8.O.I d s 1 # y.+XOX",
"(. X7.# 1 k k p T O.o.k 5 @ % y X.<.f / 8.8.8.| a a  .8.3.s...f <.) y % @ : k o.O./ a x x 1 @ 7. X}.",
",.9.H # 1 / ,.h a a a g 6 $ d  .8.O.f T <.,.<.| a a | <.,.2.T g ,.2. .a $ 5 g g a a f <.( 1 # F <.,.",
",.<.F # 1 _ 2.,.z a a g 5 $ a  .2.,.f ( >.= & 6 h h 6 & * >...f ,.2.@.d $ 5 g a a z O.<._ w # F <.,.",
"~.`.6.# 1 ( 8.8.o.| ..k > $ d | 2.,.f ( !     $ 5 5 $     ! ..f ,.9. .d $ 3 k | | o.2.3.R 1 . 6.`.~.",
"XX@Xf.+ 1 x  .,.2.2.<.z : $ d  .2.,.f / ,.B % + @ # + % V ,./ f ,.2.X.d $ ; x 2.2.3.,.o.U w . Q.@XXX",
"}.XXf.$ < a f O.<.2.<.x : $ d  .8.,.f T 0.I.B # @ # # V I.r.T f ,.8. .d $ : x ,.<.2.@.f a q $ Z.XX}.",
",.`.).d O 5 h d X.2.<.z : $ d  .8.O.f / 2.<.G.#.    ) K.<.2.T f ,.2. .d $ : x ,.3.| d g 5 $ p A.`.<.",
"B.t.4.d O @ 3 a k z z h 5 $ d  .2.,.f / 2.,.q.y.l.l.e.r.2.8.( k 1.s.o.a $ 5 h z P k g 3 + $ d 4.g.G.",
"U.H.&.g O + + 4 2 a a g 6 $ d  .2.,.f T 2.2.,.+.k.k.%.>.M M 0 6 m Z R g $ 5 g a a 2 5 @ + % g &.H.U.",
"K.E.x.e o & = + r z z k 5 $ w | 2.,.f R 2.,.2.T p p | ~ $ X + # * q d e $ 6 g z P r + = & o w x.Y.L.",
"L.Y.-.@ . N :.& S 9.<.x > + @ F 9.,.f T 2.<.2.| d p | O.a %   = ,.R q + + : x <.8.D # ,.N . + *.Y.L.",
"U.V.H # , _ :.& S 9.<.x > + @ F 9.,.f _ 2.<.8.| a a  .^ $ . + + & r e @ + > z <.9.D # :.( < # F V.L.",
"t.0.H # 1 ) :.# D 9.<.x > @ @ F 9.O.f / <.<.<.| a a X.! @ ( l.$.# , e # @ > x <.8.D # :.) 1 # H r.a.",
"C | V # 1 ( :.$ V X.| x 5 + X F s.1.f / 8.<.8.| a a  .! @ / -.X.+ q e # @ 5 l | @.V # :.) 1 # V | Z ",
"c c e # 1 ( :.& > a a g 6 + # Z O.O.f _ ,.O.O./ a a ( ~ $ o o # & e e @ + 5 g a s , # :.) 1 # e c l ",
"L.Y.l.X , ( :.# , g d g 6 + # w h f a f f g f d g f d d d d d d d g e + + 6 a d d , # ,.) 1 @ &.Y.K.",
"8 0 = # e q v ~ o.O.O.x , + . # o O o o o o o $ o O $ # o O O $ O O o . + 5 l O.,.O.! v q e # = b 6 ",
"J K b # e 2 6 / ( | / k > & K K K K K K K K K K B K K K K K K K K K L L & 5 k / / ( / 6 2 e # b L J ",
"m.D.j.# e h h s a a a g ; 7 m.D.D.m.D.m.m.m.m.n.D.D.m.D.D.D.m.m.m.m.D.n.7 3 g a a d d g g 1 @ j.D.m.",
"n.m.E # e h g g d d g g ; = b.n.n.n.n.n.n.n.n.n.n.n.n.n.n.n.n.n.n.n.n.b.3 = g a d d h d h e # E m.n.",
"n.D.E + w h g h g f g h ; = b.n.n.n.n.n.n.n.n.n.n.n.n.n.n.n.n.n.n.n.m.b.% ; h f f g g h h e . E m.n.",
"n.m.b.Q 6 o O O % O O O t j.n.n.n.n.n.n.n.n.n.n.n.n.n.n.n.n.n.n.n.n.n.n.j.b O O O O O O o 3 Q b.n.n.",
"n.b.n.m.L b n n n n n b E D.n.n.n.n.n.n.n.n.n.n.n.n.n.n.n.n.n.n.n.n.n.n.D.#.b b n n n n b K m.m.n.n.",
"n.n.n.n.m.m.m.m.m.m.m.m.n.n.n.n.n.n.n.n.n.n.n.n.n.n.n.n.n.n.n.n.n.n.n.n.n.m.m.m.m.m.m.m.m.m.b.m.n.n.",
"n.n.n.n.n.n.n.n.n.n.n.n.n.n.n.n.n.n.n.n.n.n.n.n.n.n.n.n.n.n.n.n.n.n.n.n.n.n.b.m.n.n.n.n.n.n.m.b.n.n.",
"n.n.n.n.n.n.n.n.n.n.n.n.n.n.n.n.n.n.n.n.n.n.n.b.n.n.n.n.n.n.n.n.n.n.n.n.n.n.n.n.n.n.n.n.n.n.b.m.n.n.",
"n.n.n.n.n.n.n.n.n.n.n.n.n.n.n.n.n.n.n.n.n.n.n.n.n.n.n.n.n.n.n.n.n.n.n.n.n.n.n.n.n.n.n.n.n.n.n.b.n.n.",
"n.n.n.n.n.n.n.n.n.n.n.n.n.n.n.n.n.n.n.n.n.n.n.n.n.n.n.n.n.n.n.n.n.n.n.n.n.n.n.n.n.n.n.n.n.n.n.n.n.n.",
"n.n.n.n.n.n.n.n.n.n.n.n.n.n.n.n.n.n.n.n.n.n.n.n.n.n.n.n.n.n.n.n.n.n.n.n.n.n.n.n.n.n.n.n.n.n.n.n.n.n."
};
