/* XPM */
static char *_32601e98f0f4e61d314c3651b2e1a0dDvumKF4GBOp1m6yY[] = {
/* columns rows colors chars-per-pixel */
"50 50 209 2 ",
"   c None",
".  c #170900",
"X  c #7D522E",
"o  c #695538",
"O  c #7F6C2F",
"+  c #7A6339",
"@  c #716644",
"#  c #746944",
"$  c #796644",
"%  c #7E7A44",
"&  c #964313",
"*  c #A64202",
"=  c #A06618",
"-  c #834924",
";  c #8E5A2D",
":  c #835722",
">  c #955926",
",  c #885D33",
"<  c #B4572C",
"1  c #8B632B",
"2  c #956326",
"3  c #876E39",
"4  c #986837",
"5  c #AF692C",
"6  c #AB7928",
"7  c #BB772C",
"8  c #A46535",
"9  c #B76830",
"0  c #AD7335",
"q  c #AE7B31",
"w  c #BF7534",
"e  c #CC4D0B",
"r  c #C85314",
"t  c #D65917",
"y  c #EE5F0E",
"u  c #FB5502",
"i  c #FC5C05",
"p  c #F75D0A",
"a  c #FA5D0B",
"s  c #FC5709",
"d  c #D1621C",
"f  c #FD6504",
"g  c #FB6C07",
"h  c #FB650A",
"j  c #F56B0E",
"k  c #FA6C0D",
"l  c #F1640C",
"z  c #EF780F",
"x  c #FB720F",
"c  c #F6700E",
"v  c #ED6111",
"b  c #FC6C12",
"n  c #F56819",
"m  c #E97417",
"M  c #F77414",
"N  c #FA7414",
"B  c #F67B16",
"V  c #FC7A17",
"C  c #F67C1A",
"Z  c #FB7C1A",
"A  c #FA7318",
"S  c #CC6523",
"D  c #D96624",
"F  c #C3712A",
"G  c #D67D26",
"H  c #C17431",
"J  c #C77934",
"K  c #D37E31",
"L  c #FB7820",
"P  c #847546",
"I  c #8B7C4D",
"U  c #88764A",
"Y  c #947E4B",
"T  c #827E50",
"R  c #8F7D50",
"E  c #988338",
"W  c #EF821F",
"Q  c #F5861C",
"!  c #FB831D",
"~  c #FB8C1D",
"^  c #F28C1E",
"/  c #FC961E",
"(  c #D78B29",
")  c #C9902A",
"_  c #DB962B",
"`  c #D99934",
"'  c #E98826",
"]  c #F78323",
"[  c #FC8422",
"{  c #F58D24",
"}  c #FA8C22",
"|  c #F48B2C",
" . c #F49424",
".. c #FA9226",
"X. c #F49926",
"o. c #F99B27",
"O. c #F4932D",
"+. c #FA952B",
"@. c #F59B2B",
"#. c #FA9C2A",
"$. c #E19030",
"%. c #FB9634",
"&. c #FC9D31",
"*. c #F89E37",
"=. c #CBAE3F",
"-. c #F5A22C",
";. c #F9A32D",
":. c #F8AF2F",
">. c #F6B42D",
",. c #E9A837",
"<. c #F5A232",
"1. c #FCA234",
"2. c #F6AC34",
"3. c #FAAC34",
"4. c #F3A53B",
"5. c #F4AC3E",
"6. c #FDAA3B",
"7. c #F3B03E",
"8. c #F8B739",
"9. c #F8BA33",
"0. c #F4CA3C",
"q. c #8B8045",
"w. c #96854D",
"e. c #9D8A4F",
"r. c #9E8741",
"t. c #9E9147",
"y. c #8D895B",
"u. c #8A8251",
"i. c #928D5D",
"p. c #988F5E",
"a. c #94905E",
"s. c #98905F",
"d. c #A08D44",
"f. c #A08D51",
"g. c #BAA64B",
"h. c #979461",
"j. c #989663",
"k. c #999966",
"l. c #CDB952",
"z. c #F5AC43",
"x. c #FAAA42",
"c. c #F9A744",
"v. c #E7B044",
"b. c #F3B446",
"n. c #FCB243",
"m. c #F6BC44",
"M. c #FAB34D",
"N. c #F4BB4B",
"B. c #FAB84D",
"V. c #F6B652",
"C. c #F3BC54",
"Z. c #FDBD53",
"A. c #F5BE5D",
"S. c #F2BD61",
"D. c #ECCD49",
"F. c #E9C244",
"G. c #F2C343",
"H. c #F5CD45",
"J. c #F6C649",
"K. c #EED345",
"L. c #F2D64B",
"P. c #EFCC52",
"I. c #F4C354",
"U. c #FBC353",
"Y. c #F9C855",
"T. c #F5C45C",
"R. c #FBC65C",
"E. c #F5CB5C",
"W. c #FACB5C",
"Q. c #FBD15B",
"!. c #F3D15F",
"~. c #F5CB62",
"^. c #F8CF63",
"/. c #F1CE6D",
"(. c #F6D061",
"). c #FAD364",
"_. c #F9D66A",
"`. c #F7CB74",
"'. c #F4D474",
"]. c #F9D37B",
"[. c #F1D478",
"{. c #EBCF8F",
"}. c #F9DB8F",
"|. c #F8D387",
" X c #EDCA93",
".X c #FCDA91",
"XX c #FADC9C",
"oX c #FEE28D",
"OX c #FCE395",
"+X c #F5E197",
"@X c #F7DEA9",
"#X c #FCE5A6",
"$X c #FDE9A6",
"%X c #FEECAB",
"&X c #FEE3AB",
"*X c #FCE4B3",
"=X c #FDECB4",
"-X c #FEEFB8",
";X c #FFE2BA",
":X c #FFF1B6",
">X c #FEF4BF",
",X c #FBEDC5",
"<X c #FBEDCA",
"1X c #FCE7C4",
"2X c #FEF0C1",
"3X c #FDF3CC",
"4X c #F7F0CB",
"5X c #FCF2D2",
"6X c #F6F4D4",
/* pixels */
"k.k.k.k.k.k.k.k.k.k.k.k.k.k.k.k.k.k.k.k.k.k.k.k.k.k.k.k.k.k.k.k.k.k.k.k.k.k.k.k.k.k.k.k.k.k.k.k.k.k.",
"k.k.k.k.k.k.k.k.k.k.k.k.k.k.k.k.k.k.k.k.k.k.k.k.k.k.k.k.k.k.k.k.k.k.k.k.k.k.k.k.k.k.k.k.k.k.k.k.k.k.",
"k.k.k.k.k.k.k.k.k.k.k.k.k.k.k.k.k.k.k.k.k.k.k.k.k.k.k.k.k.k.k.k.k.k.k.k.k.k.k.k.k.k.k.k.k.k.k.k.k.k.",
"k.k.k.k.k.k.k.k.k.k.k.k.k.k.k.k.k.k.k.k.k.k.k.k.k.k.k.k.k.k.k.k.k.k.k.k.k.k.k.k.k.k.k.k.k.k.k.k.k.k.",
"k.k.k.k.k.k.k.k.k.k.k.k.k.k.k.k.k.k.k.k.k.k.k.k.k.k.k.k.k.k.k.k.k.k.k.k.k.k.k.k.k.k.k.k.k.k.k.k.k.k.",
"k.k.k.k.k.k.k.k.k.k.k.k.k.k.k.k.k.k.@ < - k.k.k.k.k.k.k.k.k.k.k.k.k.k.k.k.k.k.k.k.k.k.k.k.k.k.k.k.k.",
"k.k.k.k.k.k.k.k.k.k.k.k.k.k.k.k.k.k.k.I u D - j.k.k.k.k.k.k.k.k.k.k.k.k.k.k.k.k.k.k.k.k.k.k.k.k.k.k.",
"k.k.k.k.k.k.k.k.k.k.k.k.k.k.k.k.k.k.k.k.r u a 4 k.k.k.k.k.k.k.k.k.k.k.k.k.k.k.k.k.k.k.k.k.k.k.k.k.k.",
"k.k.k.k.k.k.k.k.k.k.k.k.k.k.k.k.k.k.k.k.> i u s U s.k.k.k.k.k.k.k.k.k.k.k.k.k.k.k.k.k.k.k.k.k.k.k.k.",
"k.k.k.k.k.k.k.k.k.k.k.k.k.k.k.k.k.k.k.k.j.p i a s o k.k.s.k.k.8 % k.k.k.k.k.k.k.k.k.k.k.k.k.k.k.k.k.",
"k.k.k.k.k.k.k.k.k.k.k.k.k.k.k.k.k.k.k.k.k.y i a i 9 k.j.  k.k.e D y.k.k.k.k.k.k.k.k.k.k.k.k.k.k.k.k.",
"k.k.k.k.k.k.k.k.k.k.k.k.k.k.k.k.k.k.k.k.k.v a a a n $ h.  k.k.t h 4 k.k.k.k.k.k.k.k.k.k.k.k.k.k.k.k.",
"k.k.k.k.k.k.k.k.k.k.k.k.k.k.k.k.k.k.k.k.k.l h h h f @     k.i.n h w j.k.k.k.k.k.k.k.k.k.k.k.k.k.k.k.",
"k.k.k.k.k.k.k.k.k.k.k.k.k.k.k.k.k.k.k.k.k.j k N k f +     k., b h J k.k.k.k.k.k.k.k.k.k.k.k.k.k.k.k.",
"k.k.k.k.k.k.k.k.k.k.k.k.k.k.k.k.k.k.k.k.u.k N ! k x       R n b A J k.k.k.k.k.k.k.k.k.k.k.k.k.k.k.k.",
"k.k.k.k.k.k.k.k.k.k.k.k.k.k.k.k.k.k.k.k.; x B } M k * & d M k ] | 9 k.k.k.k.k.k.k.k.k.k.k.k.k.k.k.k.",
"k.k.k.k.k.k.k.k.k.k.k.k.k.k.k.k.k.k.k.k.8 N Q ..V M L V k N C %.%.; k.k.k.k.k.k.k.k.k.k.k.k.k.k.k.k.",
"k.k.k.k.k.k.k.k.k.k.k.k.k.k.k.k.k.k.k.k.F V ....~ W [ B Z B [ *.G @ k.k.k.k.k.k.k.k.k.k.k.k.k.k.k.k.",
"k.k.k.k.k.k.k.k.k.k.k.k.k.k.k.k.k.k.k.k.m B +.#.~ *.+.B B Z Z Z ( y.k.k.k.k.k.k.k.k.k.k.k.k.k.k.k.k.",
"k.k.k.k.k.k.k.k.k.k.k.k.k.k.k.k.k.k.k.k.M C +...[ M.%.! A Z Z [ 0 k.k.k.k.k.k.k.k.k.k.k.k.k.k.k.k.k.",
"k.k.k.k.k.k.k.k.k.k.k.k.k.k.k.U k.k.j.w.c ] #...O.B.%.Z A V ! ! 2 k.k.k.k.k.k.k.k.k.k.k.k.k.k.k.k.k.",
"k.k.k.k.k.k.k.k.k.k.k.k.k.k.k.G k.k.j.4 k ~ #.} x.V.{ [ M A ! ~ : k.k.+ > k.k.k.k.k.k.k.k.k.k.k.k.k.",
"k.k.k.k.k.k.k.k.k.k.k.k.k.k.P ..3 k.k.0 h ~ @. .Z.B.^ ~ N A ~ ... k.@ ' ( j.k.k.k.k.k.k.k.k.k.k.k.k.",
"k.k.k.k.k.k.k.k.k.k.k.k.k.k.U / $.$ k.H A @.@.*.C.n...} V ] +...1   ( ~ O.y.k.k.k.s.k.k.k.k.k.k.k.k.",
"k.k.k.k.k.k.k.k.k.k.k.k.k.k.w./  .` y.S | 5.@.c.A.6. .&.Q } X.#.7 =  .^.4.U k.k.k.k.k.k.k.k.k.k.k.k.",
"k.k.k.k.k.k.k.k.k.k.k.k.k.k.e.@.Z.X...m c.Z.@.V.T.1.;.n.X.+.#.X.@.@.@._.C.Y k.k.h.k.k.k.k.k.k.k.k.k.",
"k.k.k.k.k.k.k.k.k.k.k.k.k.k.q ;.T.V.1.z M.R.b.I.U.6.4.Z.z.x.&.-.;.~ o.U.C.6 h.k.k.k.k.k.k.k.k.k.k.k.",
"k.k.k.k.k.k.k.k.k.k.k.k.k.k.f.3.W.R.R.' M.T.E.~.R.n.b.R.N.U.<.-.;.^ #.-.b.( k.h.k.k.k.k.k.k.k.k.k.k.",
"k.k.k.k.k.k.k.k.k.k.k.k.k.k.e.3.T.T.~.A.z.I.]..XW.U.I.E.E.Y.7.2.;. .#.n.2._ k.k.k.k.k.k.k.k.k.k.k.k.",
"k.k.k.k.k.k.k.k.k.k.k.k.k.k.u.:.^.}.E.&X4.R.`.2X^.W.~.E.~.R.N.U.2.o.6.|.7.` k.k.k.k.k.k.k.k.k.k.k.k.",
"k.k.k.k.k.k.k.k.k.k.k.k.k.k.P 8.~.:X|.%XXXI.Y.*X*X~.W.W.~.Q.P.U.8.:.b.*X8.` k.k.k.k.k.k.k.k.k.k.k.k.",
"k.k.k.k.k.k.k.k.k.k.k.k.k.k.k.v.C.#X4X*X3X].Q.`.,XOX(.Q.E.E.E.Y.m.S.|.;X8.) k.k.k.k.k.k.k.k.k.k.k.k.",
"k.k.k.k.k.k.k.k.k.k.k.k.k.k.k.r.9.'.5X5X5X=X~.m.&X<X'.Q.N.Q.Q.T..X X1X}.>.w.j.k.k.k.k.k.k.k.k.k.k.k.",
"k.k.k.k.k.k.k.k.k.k.k.k.k.k.k.T G.m.-X5X4X3X&X$X{.,X$X(.0.Q.P..X<X<X,XC.0.u.k.k.k.k.k.k.k.k.k.k.k.k.",
"k.k.k.k.k.k.k.k.k.k.k.k.k.k.k.k.O 0.~.4X5X5X<X,X*X,X-XE.G./.=X3X,X>X[.0.E j.k.k.k.k.k.k.k.k.k.k.k.k.",
"k.k.k.k.k.k.k.k.k.k.k.k.k.k.k.k.j.t.H.(.%X3X5X4X,X,X%X[.+X3X4X4X-X/.0.=.T k.k.k.k.k.k.k.k.k.k.k.k.k.",
"k.k.k.k.k.k.k.k.k.k.k.k.k.k.k.k.k.k.% l.D.P.oX-X>X>X_.].:X:XOX).H.P.t.y.k.k.k.k.k.k.k.k.k.k.k.k.k.k.",
"k.k.k.k.k.k.k.k.k.k.k.k.k.k.k.k.k.k.k.k.k.E g.F.D.K.K.L.L.K.D.g.q.k.k.k.k.k.k.k.k.k.k.k.k.k.k.k.k.k.",
"k.k.k.k.k.k.k.k.k.k.k.k.k.k.k.k.k.k.k.k.k.k.k.k.j.k.k.k.k.k.k.k.k.k.k.k.k.k.k.k.k.k.k.k.k.k.k.k.y.k.",
"k.k.k.k.k.k.k.k.k.k.k.k.k.k.k.k.k.k.k.k.k.k.k.k.k.k.k.k.k.k.k.k.k.k.k.k.k.k.k.k.k.k.k.k.h.k.k.k.h.k.",
"k.k.k.k.k.k.k.k.k.k.k.k.k.k.k.k.k.k.k.k.k.k.k.k.k.k.k.k.k.k.k.i.k.k.k.k.k.k.k.k.k.k.k.h.k.k.k.k.k.k.",
"k.k.k.k.k.k.k.k.k.k.k.k.k.k.k.k.k.k.k.k.k.k.k.k.k.k.k.k.k.k.k.j.k.k.k.k.k.k.k.k.k.k.k.k.k.k.k.k.k.k.",
"k.k.k.k.k.k.k.k.k.k.k.k.k.k.k.k.k.k.k.k.k.k.k.k.k.k.k.k.k.k.k.k.k.k.k.k.k.k.k.k.k.k.k.k.k.k.k.k.k.a.",
"k.k.k.k.k.k.k.k.k.k.k.k.k.k.k.k.k.k.k.k.k.k.k.k.k.k.k.k.k.k.k.k.k.k.k.k.k.k.k.k.k.k.k.k.k.k.k.k.k.a.",
"k.k.k.k.k.k.k.k.k.k.k.k.k.k.k.k.k.k.k.k.k.k.k.k.k.k.k.k.k.k.a.k.k.k.k.k.k.k.k.k.k.k.k.k.k.k.k.k.k.j.",
"k.k.k.k.k.k.k.k.k.k.k.k.k.k.k.k.k.k.k.k.k.k.k.k.k.k.k.k.k.k.a.k.k.k.k.k.k.k.k.k.k.k.k.k.k.k.k.k.k.k.",
"k.k.k.k.k.k.k.k.k.k.k.k.k.k.k.k.k.k.k.k.k.k.k.k.k.k.k.k.k.k.j.k.k.k.k.k.k.k.k.k.k.k.k.k.k.k.k.k.k.k.",
"k.k.k.k.k.k.k.k.k.k.k.k.k.k.k.k.k.k.k.k.k.k.k.k.k.k.k.k.k.k.k.k.k.k.k.k.k.k.k.k.k.k.k.k.k.k.k.k.k.k.",
"k.k.k.k.k.k.k.k.k.k.k.k.k.k.k.k.k.k.k.k.k.k.k.k.k.k.k.k.k.k.k.k.k.k.k.k.k.k.k.k.k.k.k.k.k.k.k.k.k.k.",
"k.k.k.k.k.k.k.k.k.k.k.k.k.k.k.k.k.k.k.k.k.k.k.k.k.k.k.k.k.k.s.k.k.k.k.k.k.k.k.k.k.k.k.k.k.k.k.k.k.a."
};
