/* XPM */
static char *_31466d37309448dbe2362a3ef8daa91m5V44u2Y85xkKupF[] = {
/* columns rows colors chars-per-pixel */
"50 50 216 2 ",
"   c #776C45",
".  c #796A44",
"X  c #7D7347",
"o  c #7E7A4E",
"O  c #AF360F",
"+  c #BB3D0C",
"@  c #9A561A",
"#  c #B9430E",
"$  c #BE4D12",
"%  c #BD561E",
"&  c #9F650F",
"*  c #986217",
"=  c #967E14",
"-  c #A4671B",
";  c #BB6A18",
":  c #944E2B",
">  c #88542C",
",  c #985929",
"<  c #835F36",
"1  c #905D34",
"2  c #AB5A23",
"3  c #AC5830",
"4  c #926E30",
"5  c #9D6C37",
"6  c #957435",
"7  c #AC6328",
"8  c #B56423",
"9  c #BD6B24",
"0  c #AD6D33",
"q  c #B76F37",
"w  c #B07434",
"e  c #D8540E",
"r  c #C85A16",
"t  c #D65D19",
"y  c #FF4F00",
"u  c #E3570D",
"i  c #FE5402",
"p  c #FC5B02",
"a  c #F75909",
"s  c #FB5C0A",
"d  c #E65A18",
"f  c #F55E12",
"g  c #C76A1D",
"h  c #DC6D1B",
"j  c #F66404",
"k  c #FA6105",
"l  c #F56906",
"z  c #F96708",
"x  c #FB640B",
"c  c #F56A0B",
"v  c #FB6A0B",
"b  c #F5710C",
"n  c #FD740C",
"m  c #E56516",
"M  c #F46513",
"N  c #FC6611",
"B  c #F56C13",
"V  c #FA6C12",
"C  c #FD6819",
"Z  c #E4711C",
"A  c #EC7319",
"S  c #F57314",
"D  c #FA7414",
"F  c #F47C16",
"G  c #FB7B15",
"H  c #F6751A",
"J  c #FA7619",
"K  c #F57D1B",
"L  c #FB7D1A",
"P  c #CF5D21",
"I  c #C66C22",
"U  c #D47425",
"Y  c #EA6921",
"T  c #EC7B21",
"R  c #846C43",
"E  c #857146",
"W  c #887949",
"Q  c #8D7B4E",
"!  c #947445",
"~  c #967C46",
"^  c #947A4A",
"/  c #9B7D4A",
"(  c #857C51",
")  c #8A7E51",
"_  c #A98E23",
"`  c #BF8D29",
"'  c #AE8A3A",
"]  c #BDA12C",
"[  c #F88C0F",
"{  c #EE821B",
"}  c #F58216",
"|  c #FB8216",
" . c #F6841D",
".. c #FA831B",
"X. c #F58A1D",
"o. c #FB8A1D",
"O. c #F9981D",
"+. c #D48120",
"@. c #D49C35",
"#. c #F38422",
"$. c #FA8422",
"%. c #F68C22",
"&. c #FA8C23",
"*. c #F78E2A",
"=. c #FB8E2A",
"-. c #E8942F",
";. c #F69626",
":. c #FB9325",
">. c #F39D21",
",. c #FC9C21",
"<. c #F79729",
"1. c #FA942A",
"2. c #F69D2B",
"3. c #FA9B2C",
"4. c #EE8B33",
"5. c #FA8C38",
"6. c #EF9335",
"7. c #F49533",
"8. c #FC9534",
"9. c #F39B35",
"0. c #FC9C32",
"q. c #FB913B",
"w. c #C8A83A",
"e. c #D3B538",
"r. c #FDA326",
"t. c #FAAB27",
"y. c #F5A22C",
"u. c #F8A72B",
"i. c #FAA32C",
"p. c #FAB02D",
"a. c #E3A434",
"s. c #FCA435",
"d. c #F4AB35",
"f. c #F5A43B",
"g. c #F6A838",
"h. c #FAAE3E",
"j. c #E9B03A",
"k. c #F4B33B",
"l. c #FABA3B",
"z. c #88804B",
"x. c #938A48",
"c. c #9D8E4D",
"v. c #9C9049",
"b. c #898256",
"n. c #898457",
"m. c #858359",
"M. c #8E8B5C",
"N. c #948B59",
"B. c #928D5E",
"V. c #98935E",
"C. c #B69C49",
"Z. c #959260",
"A. c #969663",
"S. c #959564",
"D. c #999663",
"F. c #979867",
"G. c #989966",
"H. c #999966",
"J. c #979C69",
"K. c #999B69",
"L. c #F99D40",
"P. c #FC9A4A",
"I. c #C5AB41",
"U. c #CEAB44",
"Y. c #D7BE45",
"T. c #F7A845",
"R. c #F9AF4B",
"E. c #E6B845",
"W. c #F6B942",
"Q. c #F5A957",
"!. c #FAAD50",
"~. c #FAA45B",
"^. c #F8B556",
"/. c #F4BB5E",
"(. c #F5B969",
"). c #F2AF74",
"_. c #F5B97A",
"`. c #D9C24C",
"'. c #E3C74A",
"]. c #EBCB4C",
"[. c #F8C446",
"{. c #F4CC49",
"}. c #F9CE4E",
"|. c #F3D14D",
" X c #FAD34D",
".X c #F6CB57",
"XX c #F5D453",
"oX c #FBD653",
"OX c #FBD559",
"+X c #FACA66",
"@X c #F8D166",
"#X c #F2C175",
"$X c #FAC679",
"%X c #FBCC7E",
"&X c #F7D479",
"*X c #F9D97C",
"=X c #EFC68C",
"-X c #F9CA84",
";X c #F4CF8B",
":X c #FFCE8D",
">X c #FED587",
",X c #FAD888",
"<X c #FADC8C",
"1X c #FACC92",
"2X c #FBD392",
"3X c #FEDB93",
"4X c #FDD59B",
"5X c #F4DC9E",
"6X c #FBDC9D",
"7X c #FADCA5",
"8X c #FEDAAA",
"9X c #FEE3A4",
"0X c #FAE2AB",
"qX c #F6E4B5",
"wX c #FBE6B1",
"eX c #FBEAB8",
/* pixels */
"H.H.H.H.H.H.H.H.H.H.H.H.H.H.H.H.H.H.H.H.H.H.H.H.H.H.D.M.D.H.H.H.H.H.H.H.H.H.H.H.H.H.H.H.H.H.H.H.H.H.",
"H.H.H.H.H.H.H.H.H.H.H.H.H.H.H.H.H.H.H.H.H.H.H.H.H.M.H.M.V.B.H.H.H.H.H.H.H.H.H.H.H.H.H.H.H.H.H.H.H.H.",
"H.H.H.H.H.H.H.H.H.H.H.H.H.H.H.H.H.H.H.H.H.H.H.H.S.A.H.b.3 : H.H.H.H.H.H.H.H.H.H.H.H.H.H.H.H.H.H.H.H.",
"H.H.H.H.H.H.H.H.H.H.H.H.H.H.H.H.H.H.H.H.H.H.H.H.M.H.H.> d O H.H.H.H.H.H.H.H.H.H.H.H.H.H.H.H.H.H.H.H.",
"H.H.H.H.H.H.H.H.H.H.H.H.H.H.H.H.H.H.H.H.H.H.H.H.A.K.J.2 a + H.H.H.H.H.H.H.H.H.H.H.H.H.H.H.H.H.H.H.H.",
"H.H.H.H.H.H.H.H.H.H.H.H.H.H.H.H.H.H.H.H.H.H.H.S.D.S.1 u s # H.H.H.H.H.H.H.H.H.H.H.H.H.H.H.H.H.H.H.H.",
"H.H.H.H.H.H.H.H.H.H.H.H.H.H.H.H.H.H.H.H.H.H.B.H.K.N.% i a + H.H.H.H.H.H.H.H.H.H.H.H.H.H.H.H.H.H.H.H.",
"H.H.H.H.H.H.H.H.H.H.H.H.H.H.H.H.H.H.H.H.Z.H.S.H.D.! a i a : H.H.H.H.H.H.H.H.H.H.H.H.H.H.H.H.H.H.H.H.",
"H.H.H.H.H.H.H.H.H.H.H.H.H.H.H.H.H.H.H.H.H.H.H.H.Q P s y f ! K.H.H.H.H.H.H.H.H.H.H.H.H.H.H.H.H.H.H.H.",
"H.H.H.H.H.H.H.H.H.H.H.H.H.H.H.H.H.H.H.S.H.H.K.B.q s i i d R H.H.H.H.H.H.H.H.H.H.H.H.H.H.H.H.H.H.H.H.",
"H.H.H.H.H.H.H.H.H.H.H.H.H.H.H.H.H.H.H.D.H.H.M., f i i i e . H.H.H.H.H.H.H.H.H.H.H.H.H.H.H.H.H.H.H.H.",
"H.H.H.H.H.H.H.H.H.H.H.H.H.H.H.H.H.H.H.H.H.H.< e i i i s $ X S.H.H.H.H.H.H.H.H.H.H.H.H.H.H.H.H.H.H.H.",
"H.H.H.H.H.H.H.H.H.H.H.H.H.H.H.H.H.K.H.H.H.J.t p p p a f 5 B.S.V.H.H.H.H.H.H.H.H.H.H.H.H.H.H.H.H.H.H.",
"H.H.H.H.H.H.H.H.H.H.H.H.H.H.H.H.. b.M.H.K.0 M p i i s d R S.H.A.H.H.H.H.H.H.H.H.H.H.H.H.H.H.H.H.H.H.",
"H.H.H.H.H.H.H.H.H.H.H.H.H.H.H.H.> r . D.O B k p p p a e R H.H.H.H.H.H.H.H.H.H.H.H.H.H.H.H.H.H.H.H.H.",
"H.H.H.H.H.H.H.H.H.H.H.H.H.H.H.H.: m 6 ^ Y v k p p p f 8 ) H.H.H.H.H.H.H.H.H.H.H.H.H.H.H.H.H.H.H.H.H.",
"H.H.H.H.H.H.H.H.H.H.H.H.H.H.S.S.2 v r t V x x s p p N / H.H.H.H.H.H.H.H.H.H.H.H.H.H.H.H.H.H.H.H.H.H.",
"H.H.H.H.H.H.H.H.H.H.H.H.H.H.H.W r v x N N N x N k k M ~ H.H.H.H.H.H.H.H.H.H.H.H.H.H.H.H.H.H.H.H.H.H.",
"H.H.H.H.H.H.H.H.H.H.H.H.H.H.H.! m v x N V N M N x v B ~ H.H.H.H.H.H.H.H.H.H.H.H.H.H.H.H.H.H.H.H.H.H.",
"H.H.H.H.H.H.H.H.H.H.H.H.H.H.H.~ M v v v C B L S v v C ~ H.H.H.H.H.H.H.B.N.B.H.H.H.H.H.H.H.H.H.H.H.H.",
"H.H.H.H.H.H.H.H.H.H.H.H.H.H.( 9 c c V B D J 0.#.n v J x.H.H.H.H.H.H.K.x.U ^ K.K.H.H.H.H.H.H.H.H.H.H.",
"H.H.H.H.H.H.H.H.H.H.H.H.H.H.E m j c B S D =.9.7.S v D 9 ) H.H.H.K.K.Q U J g ( S.H.H.H.H.H.H.H.H.H.H.",
"H.H.H.H.H.H.H.H.H.H.H.H.H.A.~ H j z D S H 8.T.8.J n D Z R S.H.H.V.< h n n K E H.H.H.H.H.H.H.H.H.H.H.",
"H.H.H.H.H.H.H.H.H.H.H.H.S.  r S j x J J H =.0.$.L J J G 7 m.H.S.> A | D n L 0 ( H.H.H.H.H.H.H.H.H.H.",
"H.H.H.H.H.H.H.H.H.H.H.H.H.E Y c j V J L D ..o.K $.$.L L Z < Q w K L L G G K Y X H.H.H.H.H.H.H.H.H.H.",
"H.H.H.H.H.H.H.H.H.H.H.H.m.0 H k k v D L | G G | =.8. . .$.I 9 F G K L L K K T 4 H.H.H.H.H.H.H.H.H.H.",
"H.H.H.H.H.H.H.H.H.H.H.H.  I S p x v S L o...| X.*.s.;.X. . .K F ..o...o.#. .$.; H.H.H.H.H.H.H.H.H.H.",
"H.H.H.H.H.H.H.H.H.H.H.H.X T z s a x B $.$.X.}  .%.s.3.%.X.X.X.} $.L K ..X.%.&.T H.H.H.H.H.H.H.H.H.H.",
"H.H.H.H.H.H.H.H.H.H.H.H.4 $.k s k v L %.&.%.$.&.:.0.3.%.%.X.%.F &.L G o.&.X.o.4.H.H.H.H.H.H.H.H.H.H.",
"H.H.H.H.H.H.H.H.H.H.H.H.; o.j j z D 8.6.:.&.*.*.:.:.:.:.*.:.&.F ..G F $.%.%.&.7.V.H.H.H.H.H.H.H.H.H.",
"H.H.H.H.H.H.H.H.D.H.F.F.+.&.l v l L (.~.1.o.*.1.1.:.:.1.<.:.:.G G |  ...:.:.:.0.@ H.H.H.H.H.H.H.H.H.",
"H.H.H.H.H.H.H.H.K.D.K.H.-.1.S D b &._.(.<.[ X.7.3.3.<.2.<.<.:.} L ..G $.&.:.O.r.- H.H.H.H.H.H.H.H.H.",
"H.H.H.H.H.H.H.H.H.H.H.x.9.0.%...F L.2X_.2.[ X.3.y.2.2.2.y.y.O.} F L K ..%.:.,.s.- H.H.H.H.H.H.H.H.H.",
"H.H.H.H.H.H.H.H.H.H.D.* f.>.3.%.{ !.4X1Xf.O.X.0.y.s.s.2.y.u.>.} }  .L $.o.3.,.f.* H.H.H.H.H.H.H.H.H.",
"H.H.H.H.H.H.H.H.H.H.H.& d.t.h.Q.6.!.4X8X(.2.X.3.R.f.u.h.T.d.>...$.#.5.5.*.i.r.d.V.H.H.H.H.H.H.H.H.D.",
"H.H.H.H.H.H.H.H.H.H.H.4 d.t.^.-XQ.T.:X8X3X.Xg.R.%X^.h.+X(.k.,...$.5.P.P.9.u.u.a.H.H.H.H.H.H.H.H.H.H.",
"H.H.H.H.H.H.H.H.H.H.H.J.k.p.^.2X>X/._.3X0X5X&X#X7X$X(.>X#XT.O.%.q.~.~.L.g.d.k.` H.H.H.H.H.H.H.H.H.H.",
"H.H.H.H.H.H.H.H.H.H.H.H.@.l.W.%X7X6X;X;X5X0X9X0XwX8X6X3X(.!.P.!.~.~.~.^.W.l.j.6 H.H.H.H.H.H.H.H.H.H.",
"H.H.H.H.H.H.H.H.H.H.S.H.6 W.k..X;XwXwX0XwXwXqXqXqXqXqX6X;X2X4X).)._.%X+X[.W.' ) H.H.H.H.H.H.H.H.H.H.",
"H.H.H.H.H.H.H.H.H.H.H.J.m.C.E.W..X,X<X9X0XwXwXwX0XwXwXwXwXeX7X=X1X<X@X[.E.C.M.H.H.H.H.H.H.H.H.H.H.K.",
"H.H.H.H.H.H.H.H.H.H.H.H.H.S.c.U.{.}.}..X@X&X*X*X*X*X,X<X<X<X*X+XOX}.{.w.c.S.K.H.H.H.H.H.H.H.H.H.K.D.",
"H.H.H.H.H.H.H.H.H.H.H.H.H.H.S.N.v.w.].oX X XXXXX|.|.|.XXOXOXOXoX{.I.v.W S.H.H.H.H.H.H.H.H.H.H.H.H.H.",
"H.H.H.H.H.H.H.H.H.H.H.H.H.H.H.S.H.o E x._ w.`.`.'.].'.'.`.e.] = W o H.D.H.H.H.H.H.H.H.H.H.H.H.H.D.K.",
"H.H.H.H.H.H.H.H.H.H.H.H.H.H.J.H.G.G.J.H.F.F.S.S.J.J.G.A.A.A.H.H.J.H.H.H.H.H.H.H.H.H.H.H.H.H.H.H.H.H.",
"H.H.H.H.H.H.H.H.H.H.H.H.H.H.H.H.H.H.H.H.H.H.H.H.G.G.G.G.H.H.H.H.H.D.G.G.H.H.H.H.H.H.H.H.H.H.H.H.H.H.",
"H.H.H.H.H.H.H.H.H.H.H.H.H.H.H.H.H.H.H.H.H.H.H.H.G.G.H.H.H.H.H.H.H.H.H.G.H.H.H.H.H.H.H.H.H.H.H.H.H.H.",
"H.H.H.H.H.H.H.H.H.H.H.H.H.H.H.H.H.H.H.H.H.H.H.H.H.H.H.H.H.H.H.H.H.H.J.H.H.H.H.H.H.H.H.H.H.H.H.H.D.K.",
"H.H.H.H.H.H.H.H.H.H.H.H.H.H.H.H.H.H.H.H.H.H.H.H.H.H.H.H.H.H.H.H.H.H.D.H.H.H.H.H.H.H.H.H.H.H.H.H.K.H.",
"H.H.H.H.H.H.H.H.H.H.H.H.H.H.H.H.H.H.H.H.H.H.H.H.H.H.H.H.H.H.H.H.H.H.H.D.K.H.D.K.H.H.D.H.H.D.H.H.H.D.",
"H.H.H.H.H.H.H.H.H.H.H.H.H.H.H.H.H.H.H.H.H.H.H.H.H.H.H.H.H.H.H.H.H.H.H.H.H.H.H.H.K.D.K.H.H.K.H.H.H.K."
};
