/* XPM */
static char *_b78afd8ddcb4a53ab8c15a163ab8da9e9Weztet7hFQRDJv[] = {
/* columns rows colors chars-per-pixel */
"16 16 213 2 ",
"   c #000305",
".  c #00060A",
"X  c #120902",
"o  c #180A01",
"O  c #070510",
"+  c #030E14",
"@  c #020F15",
"#  c #060F16",
"$  c #0C0B10",
"%  c #060C1A",
"&  c #140E18",
"*  c #14081C",
"=  c #120E1F",
"-  c #190E1E",
";  c #0E111A",
":  c #121116",
">  c #141318",
",  c #151318",
"<  c #080822",
"1  c #0C102B",
"2  c #131023",
"3  c #131A22",
"4  c #1A1826",
"5  c #1C1C24",
"6  c #1E1F24",
"7  c #151C2E",
"8  c #131730",
"9  c #141831",
"0  c #1D1930",
"q  c #1A1B37",
"w  c #291D21",
"e  c #201E2B",
"r  c #241830",
"t  c #251C31",
"y  c #1E2225",
"u  c #1E2326",
"i  c #282327",
"p  c #342127",
"a  c #202E31",
"s  c #2E2238",
"d  c #382C30",
"f  c #3B2F33",
"g  c #313236",
"h  c #3D3238",
"j  c #31393B",
"k  c #38393E",
"l  c #402E2C",
"z  c #4D322B",
"x  c #503A2D",
"c  c #5A4027",
"v  c #67442E",
"b  c #68462B",
"n  c #68452F",
"m  c #714F36",
"M  c #2F2F49",
"N  c #443740",
"B  c #443F53",
"V  c #3D4657",
"C  c #4C4847",
"Z  c #514746",
"A  c #5C4F49",
"S  c #4B5459",
"D  c #505B57",
"F  c #555958",
"G  c #6C5649",
"H  c #6D594E",
"J  c #70554C",
"K  c #745F4A",
"L  c #6C5450",
"P  c #685B55",
"I  c #454B61",
"U  c #5D5967",
"Y  c #5F5E6C",
"T  c #676067",
"R  c #656366",
"E  c #636D6C",
"W  c #6B6B6D",
"Q  c #6A6277",
"!  c #706D76",
"~  c #776D78",
"^  c #6F7877",
"/  c #6E7A78",
"(  c #6E7C7D",
")  c #876A58",
"_  c #9F8064",
"`  c #908373",
"'  c #93867D",
"]  c #A6876B",
"[  c #796D81",
"{  c #7D7081",
"}  c #7B7B85",
"|  c #7B7788",
" . c #7A788E",
".. c #877D85",
"X. c #768183",
"o. c #7A8682",
"O. c #7F8084",
"+. c #7F8794",
"@. c #858784",
"#. c #908C8B",
"$. c #9E9282",
"%. c #92918F",
"&. c #8A999C",
"*. c #959A9E",
"=. c #B09381",
"-. c #AD9A96",
";. c #A79C9A",
":. c #9BA19F",
">. c #B4A28C",
",. c #BCA289",
"<. c #BBA397",
"1. c #A093A5",
"2. c #A09FA5",
"3. c #A89EA7",
"4. c #AB9FA9",
"5. c #A0A1A3",
"6. c #A1A0A6",
"7. c #A1A4AB",
"8. c #B4AFAC",
"9. c #BBB4AC",
"0. c #B2ADB4",
"q. c #BDA9B2",
"w. c #AFB3B4",
"e. c #D8BDB2",
"r. c #D8BDB4",
"t. c #C4C5C9",
"y. c #D2C6D0",
"u. c #DECDD3",
"i. c #EFDDD1",
"p. c #F1D8D3",
"a. c #F6DED2",
"s. c #E7E0D8",
"d. c #DFE9E8",
"f. c #F1EAE2",
"g. c #F0ECED",
"h. c #F4F3EF",
"j. c #EFF5F5",
"k. c #F1F1F1",
"l. c #F2F0F1",
"z. c #F3F3F3",
"x. c #F6F5F3",
"c. c #F7F6F2",
"v. c #F3F1F4",
"b. c #F2F3F5",
"n. c #F2F1F6",
"m. c #F6F6F6",
"M. c #F8F4F3",
"N. c #FAF6F7",
"B. c #FCF6F6",
"V. c #F7F9F4",
"C. c #FCFDF7",
"Z. c #F3F7F8",
"A. c #F5F6F8",
"S. c #F5F6FA",
"D. c #FBF1FA",
"F. c #FBF4FB",
"G. c #FFF3FD",
"H. c #FBF4FC",
"J. c #FFF4FC",
"K. c #FFF4FF",
"L. c #F2F8F8",
"P. c #F5FDFF",
"I. c #F7FEFF",
"U. c #F7FFFF",
"Y. c #FAF8F9",
"T. c #F8F8FA",
"R. c #F8F9FB",
"E. c #FBFBFB",
"W. c #FFF8F9",
"Q. c #FFF9F9",
"!. c #FFF9FA",
"~. c #FFFBFA",
"^. c #FDFCF8",
"/. c #FFFFFA",
"(. c #FFFEFB",
"). c #FFFFFB",
"_. c #F8F9FD",
"`. c #FAFBFD",
"'. c #F9FAFE",
"]. c #F8FBFF",
"[. c #FBFAFF",
"{. c #FAFBFF",
"}. c #FDFBFC",
"|. c #FCFAFD",
" X c #FFFBFC",
".X c #FFF8FF",
"XX c #FFF9FF",
"oX c #FDFBFE",
"OX c #FFFBFE",
"+X c #FFFAFF",
"@X c #FFFBFF",
"#X c #F8FCFF",
"$X c #F9FDFF",
"%X c #FBFCFE",
"&X c #F9FFFF",
"*X c #FAFEFF",
"=X c #FBFFFF",
"-X c gray99",
";X c #FEFCFD",
":X c #FFFDFD",
">X c #FEFEFC",
",X c #FFFEFD",
"<X c #FFFFFD",
"1X c #FCFDFF",
"2X c #FEFCFF",
"3X c #FFFCFF",
"4X c #FFFDFF",
"5X c #FDFEFF",
"6X c #FCFFFF",
"7X c #FEFEFF",
"8X c #FFFEFF",
"9X c #FEFFFF",
"0X c white",
/* pixels */
",XQ.,X,XH.K.K.OXK.K.OXOXOXOX[.*X",
"Q.,XN.OX,X,XOXH.D.y.6.3.0.,X,X*X",
"OX,XY.,X:.E ^ j u y $ > : t.].*X",
",Xg.,Xw.  . + # # 3 ; 5 5 g [.*X",
",X,X[.7.% 7 9 1 q < 0 2 6 M c.,X",
"OXl.*X2.O 4 , t t t * - & 2.*Xb.",
",X,X,Xw.X o H <.J z H l C v.,X*X",
",Xn.,Xi.` K x ] m n ) x A ,X*XU.",
"U.,X,Xf.$.>.,._ n n =.G L N.,XU.",
",XA.k.,X9.' i.a.e.r.p.-.;.[.A.*X",
"x.,X,X*X} Y | Q [ 1...~ T ,X,Xx.",
",Xv.[.*X+.V I 8 M  .B U ! OX/./.",
"[.,XL.U.X.( &.a S *.} W R x.,XC.",
",XR.*XZ.d.o./ D F @.%.C #.,X/.x.",
",X[.,X*X,X5., i h f w d W.N.k./.",
"*X,X,X].,XOX..N W.q.p u.Q././.C."
};
