/* XPM */
static char *result[] = {
/* columns rows colors chars-per-pixel */
"50 50 5 1 ",
"  c gray20",
". c #CC9933",
"X c #FFCC33",
"o c #999966",
"O c white",
/* pixels */
"oooooooooooooooooooooooooooooooooooooooooooooooooo",
"oooooooooooooooooooooooooooooooooooooooooooooooooo",
"oooooooooooooooooooooooooooooooooooooooooooooooooo",
"oooooooooooooooooooooooooooooooooooooooooooooooooo",
"oooooooooooooooooooooooooooooooooooooooooooooooooo",
"oooooooooooooooooooooooooooooooooooooooooooooooooo",
"oooooooooooooooooooooooooooooooooooooooooooooooooo",
"oooooooooooooooooooooooooooooooooooooooooooooooooo",
"oooooooooooooooooooooooooooooooooooooooooooooooooo",
"oooooooooooooooooooooooooooooooooooooooooooooooooo",
"oooooooooooooooooooooooooooooooooooooooooooooooooo",
"oooooooooooooooooooooooooooooooooooooooooooooooooo",
"oooooooooooooooooooooooooooooooooooooooooooooooooo",
"oooooooooooooooooooooooooooooooooooooooooooooooooo",
"oooooooooooooooooooooooooooooooooooooooooooooooooo",
"oooooooooooooooooooooooooooooooooooooooooooooooooo",
"oooooooooooooooooooooooooooooooooooooooooooooooooo",
"oooooooooooooooooooooooooooooooooooooooooooooooooo",
"oooooooooooooooooooo oooooooo oooooooooooooooooooo",
"ooooooooooooooooooo X o    o X ooooooooooooooooooo",
"oooooooooooooooooo .X  ....  X. oooooooooooooooooo",
"oooooooooooooooooo .X..XXXX..X. oooooooooooooooooo",
"ooooooooooooooooooo .XXXXXOXX. ooooooooooooooooooo",
"oooooooooooooooooooo . XXXX X oooooooooooooooooooo",
"ooooooooooooooooooo .X  XX  X. ooooooooooooooooooo",
"ooooooooooooooooooo .XX XX XX. ooooooooooooooooooo",
"oooooooooooooooooooo ...XXX.. oooooooooooooooooooo",
"ooooooooooooooooooooo  ....  ooooooooooooooooooooo",
"ooooooooooooooooooooooo .X ooooooooooooooooooooooo",
"oooooooooooooooooooooo  .X  oooooooooooooooooooooo",
"oooooooooooooooooooo    .XOX  oooooooooooooooooooo",
"ooooooooooooooooooo     .X..   ooooooooooooooooooo",
"ooooooooooooooooooo     .X     ooooooooooooooooooo",
"oooooooooooooooooooo          oooooooooooooooooooo",
"oooooooooooooooooooooo      oooooooooooooooooooooo",
"oooooooooooooooooooooooooooooooooooooooooooooooooo",
"oooooooooooooooooooooooooooooooooooooooooooooooooo",
"oooooooooooooooooooooooooooooooooooooooooooooooooo",
"oooooooooooooooooooooooooooooooooooooooooooooooooo",
"oooooooooooooooooooooooooooooooooooooooooooooooooo",
"oooooooooooooooooooooooooooooooooooooooooooooooooo",
"oooooooooooooooooooooooooooooooooooooooooooooooooo",
"oooooooooooooooooooooooooooooooooooooooooooooooooo",
"oooooooooooooooooooooooooooooooooooooooooooooooooo",
"oooooooooooooooooooooooooooooooooooooooooooooooooo",
"oooooooooooooooooooooooooooooooooooooooooooooooooo",
"oooooooooooooooooooooooooooooooooooooooooooooooooo",
"oooooooooooooooooooooooooooooooooooooooooooooooooo",
"oooooooooooooooooooooooooooooooooooooooooooooooooo",
"oooooooooooooooooooooooooooooooooooooooooooooooooo"
};
