/* XPM */
static char *result[] = {
/* columns rows colors chars-per-pixel */
"50 50 256 2 ",
"   c #262B2D",
".  c #2A2D2E",
"X  c #222530",
"o  c #272931",
"O  c #2D2E32",
"+  c #2C322C",
"@  c #2A3030",
"#  c #2E3030",
"$  c #372F2F",
"%  c #3A2D2D",
"&  c #352E32",
"*  c #382E32",
"=  c #33352E",
"-  c #353A2D",
";  c #383C2F",
":  c #323232",
">  c #313234",
",  c #323431",
"<  c #343333",
"1  c #353135",
"2  c #343531",
"3  c #363534",
"4  c #373832",
"5  c #393234",
"6  c #3D3538",
"7  c #3A3A32",
"8  c #3F3839",
"9  c #3F4230",
"0  c #3D4039",
"q  c #4A2F32",
"w  c #433232",
"e  c #403639",
"r  c #443D39",
"t  c #483133",
"y  c #502729",
"u  c #5D2A2B",
"i  c #533132",
"p  c #5C3132",
"a  c #612E2E",
"s  c #643131",
"d  c #603738",
"f  c #673A31",
"g  c #63393A",
"h  c #693434",
"j  c #6D3A3A",
"k  c #713333",
"l  c #713D3D",
"z  c #523D42",
"x  c #40462C",
"c  c #44492C",
"v  c #484A2E",
"b  c #424332",
"n  c #42443A",
"m  c #464930",
"M  c #484437",
"N  c #4C453A",
"B  c #4A4A32",
"V  c #4B4B3D",
"C  c #4A502E",
"Z  c #4D512E",
"A  c #4C542A",
"S  c #4E542C",
"D  c #4E5031",
"F  c #51463D",
"G  c #56493E",
"H  c #50532F",
"J  c #51552E",
"K  c #55592D",
"L  c #585C2E",
"P  c #515132",
"I  c #525430",
"U  c #545431",
"Y  c #575634",
"T  c #565930",
"R  c #585731",
"E  c #595436",
"W  c #5B5439",
"Q  c #5C503E",
"!  c #5A5B32",
"~  c #5D632C",
"^  c #635B34",
"/  c #61662E",
"(  c #64682E",
")  c #646532",
"_  c #666039",
"`  c #666930",
"'  c #696435",
"]  c #6C6439",
"[  c #696932",
"{  c #6E6938",
"}  c #71653D",
"|  c #72693A",
" . c #77703A",
".. c #7B733B",
"X. c #4D4D40",
"o. c #544441",
"O. c #584747",
"+. c #5D464B",
"@. c #5E4C42",
"#. c #5A5A47",
"$. c #61464B",
"%. c #614D47",
"&. c #61494A",
"*. c #694C4D",
"=. c #674A50",
"-. c #6B4B50",
";. c #605042",
":. c #645542",
">. c #675446",
",. c #6E564A",
"<. c #6F544D",
"1. c #6F5453",
"2. c #744141",
"3. c #794646",
"4. c #7D4949",
"5. c #72564F",
"6. c #745B49",
"7. c #795E4D",
"8. c #715450",
"9. c #755255",
"0. c #755454",
"q. c #785050",
"w. c #785455",
"e. c #785358",
"r. c #7A5458",
"t. c #7C5A53",
"y. c #61614A",
"u. c #69694F",
"i. c #6D6D51",
"p. c #756541",
"a. c #786545",
"s. c #7C644A",
"d. c #796941",
"f. c #7A6944",
"g. c #7A6C41",
"h. c #7C6A44",
"j. c #7E6F42",
"k. c #7F6C44",
"l. c #7E6949",
"z. c #7F7041",
"x. c #7A7A57",
"c. c #814B4B",
"v. c #845353",
"b. c #855B5D",
"n. c #8A5454",
"m. c #8A5D52",
"M. c #8B5A5A",
"N. c #945E5E",
"B. c #875860",
"V. c #8B5F60",
"C. c #945F68",
"Z. c #80634D",
"A. c #816A48",
"S. c #82694C",
"D. c #846B4B",
"F. c #84694D",
"G. c #886C4F",
"H. c #856452",
"J. c #876258",
"K. c #866850",
"L. c #886654",
"P. c #8C645A",
"I. c #896853",
"U. c #8A6855",
"Y. c #8E6C55",
"T. c #8D6D5B",
"R. c #877840",
"E. c #897941",
"W. c #91665D",
"Q. c #936E57",
"!. c #93695C",
"~. c #997755",
"^. c #9B705D",
"/. c #8D6360",
"(. c #946362",
"). c #956068",
"_. c #966B63",
"`. c #986565",
"'. c #9B6568",
"]. c #9C6964",
"[. c #9C696A",
"{. c #937D63",
"}. c #9C7169",
"|. c #9B7F6B",
" X c #A1745E",
".X c #A27F54",
"XX c #AC7F5F",
"oX c #A0666D",
"OX c #A16D65",
"+X c #A26A6A",
"@X c #A26D72",
"#X c #A57364",
"$X c #A3736C",
"%X c #A87565",
"&X c #AC7469",
"*X c #AD7A65",
"=X c #AF7868",
"-X c #A47072",
";X c #A67A78",
":X c #AA7475",
">X c #A97278",
",X c #AD7B7A",
"<X c #B07D65",
"1X c #B37A6B",
"2X c #B57C74",
"3X c #B17A79",
"4X c #B27E83",
"5X c #84845B",
"6X c #8A8A5E",
"7X c #97804A",
"8X c #9C834A",
"9X c #8D8D60",
"0X c #919162",
"qX c #999965",
"wX c #9D9D68",
"eX c #AE855B",
"rX c #B78A5F",
"tX c #BC925C",
"yX c #B48164",
"uX c #B68068",
"iX c #BA8665",
"pX c #BA816C",
"aX c #BC8964",
"sX c #BF8969",
"dX c #B68177",
"fX c #A0A069",
"gX c #C3975E",
"hX c #C08D65",
"jX c #C38E68",
"kX c #C08D77",
"lX c #C48C7A",
"zX c #C69464",
"xX c #C99665",
"cX c #CC9668",
"vX c #CC9964",
"bX c #CD9968",
"nX c #CC9973",
"mX c #CC9A7E",
"MX c #D19D66",
"NX c #D09D7A",
"BX c #D5A067",
"VX c #BB8782",
"CX c #BF8986",
"ZX c #C18E86",
"AX c #C18E8B",
"SX c #C28F91",
"DX c #C7938C",
"FX c #CB948E",
"GX c #C69396",
"HX c #CA9793",
"JX c #CE9B92",
"KX c #D09D82",
"LX c #D29E94",
"PX c #D6A097",
"IX c black",
"UX c None",
/* pixels */
"# # # : : # # # # # # : : : # # # # # # # # : : # # # : : # # # # # # # # : : : : # # # # # # # # # ",
"r.r.>.A Z <.0.0.r.r.W Z Z Z <.0.0.0.w.r.r.<.Z Z >.r.8.H A :.r.r.r.0.0.0.0.E Z Z P 0.r.w.0.0.0.0.0.0.",
"U.U.F.d.h.].+X].I.L.s.d.f.f.`.+X+X].L.L.L.H.f.d.W.oX`.a.p.Z.L.L.H.].+X+X'.Z.d.f.f.H.I.!.+X+X+X+X+X+X",
"' ) s.'.'.(.(.H.) [ !.+X+X+XOX`.'.(.| [ [ g.+X+XOX].OX+X+XG.[ [ [ U.'.`.OX+X+X+X].| ) a.(.(.(.(.(.(.",
"(.(._.`.`.} / p.].zXvXbXbXbXvX1X).].zXvXvXxXbXbXcXbXxXbXbXvXvXvXvX%XC.OXxXvXbXbXbXvX%Xs.) ' _.Z.` ' ",
"].`.`.`.`.) ] ^.jXE.E.E.E.E.E.z.p.d.E.E.E.E.E.E.E.E.E.E.E.E.E.E.E.j.p.g.E.E.E.E.E.R.rX1Xs./ ] ' ) ) ",
"'.'.'.'.`.s.P.&X8XP c c c x c c c c c c c x x x x x x x x x c c c c c c x x c c c c E.eX'.a.a.] / ) ",
"W.W.W.W.`.+X[.s.J : : 5 6 r r r r r r 8 r r r r r r r r r r r 6 r r r r r r r 6 2 O c p.`.+XoXZ.' ] ",
") ) ) ] '.cX8XP : O J s.+XzXzXzXxXzXvX].*XvXzXzXzXzXzXzXzXvXaX(.hXvXzXzXzXvX*XH.~ 2 O b ..vX#X(._.(.",
"J.P.J.H.] @.b 2 # J 7.*XxXMXMXMXvXMXBXOX*XMXMXBXBXBXBXBXMXMXaX'.vXMXMXMXMXvXbXuXH.! - # b G V.'.).).",
"pXpXpXyX7X7 X , B a.#XyXaXvXvXvXbXvX<X*XaXvXvXyX*X<X<X<XzXMXzX*X*XzXvXvXvXvXhXyX1XF.E ; o   ^.pXuXuX",
"tXtXtXtXtXN . B d.OXxXyX].vXvXvXvXaX].hXMXvXhXOX].].].].iXxXvXvXOX<XxXvXvXMX*XOXvX&XD.Y 2 : .XgXtXtX",
") ) ) ) ' 2 v p.].xXMX<X].vXvXvXiX].xXvXvXaX`.zXvXvXvXvXOX*XvXvXvX#X%XvXvXvX*XOXvXvX&XH.L : ! [ ) ) ",
") ) ) ) ) 4 &.#XjXvXvX<X+XJXJXPXVX'.LXLXPXAX(.FXPXLXLXLX+X,XPXJXLX:X:XPXJXPX,XOXvXvXxXyXt.: ! ) ) ) ",
"[ [ [ [ [ - -.1XMXvXNXdX'.4X4X4X}.s.{.,X4X,X`.{.{.{.{.{._.-X4X4X|.S.T.4X4X4X@X$XKXvXMXsXB.: L [ [ [ ",
"! ! ! ! ! = =.=XvXbXFX;XP.(.(.(.L.' ~ s.(.`.`.} ' ] ' ' P.'.(.H./ ) s.(.(.(.P.].SXnXvXiXb.: P ! ! ! ",
": : : : : . *.<XbXJX>Xa.' `.`.`.'.(.' ~ s.'.`.`.`.`.`.`.`.'.P.) / H.'.`.`.'.a.] '.GXNXiXb.: # : : : ",
": : : : : . *.3XHX-X`.(.H.' (.oX!.{ [ [ [ | | | | | | | | | [ [ [ [ S.+X'.} s.(.(.[.AXZXb.: # : : : ",
": : : : : . -.2XmX`.(.'.(.S.A.,.F c B B B m m m m m m m m m B B B m N &.l.s.P.[.`.(.kXlXB.:   . . . ",
": : : : : # %. XaX].(.`.'.'.^ - O O O O O O O O O O O O O O O O O O O = J W.oX`.`.(.yXyXt.: G ;.;.;.",
"< : : : : O C | `.`.`.`.].(.r . : 1 : < < < < < < < < < < < : < < < : # # t.].`.`.`.'.Z.K : eXMXvXvX",
"s 5 @ : : O P [ } `.'.`.W.] 7 : : , : : : : : : : : : : : : : : : : : : > ! K.'.'.'.s.[ ! : _ ..|  .",
"w *.O.@ # > P ` / p.(.oXW./ 7 O : > : : : : : : : : : : : : : : : : : : : K S.oX`.s.) ( ! : T ) ! 9 ",
"% M.v.% w & D { p.~ l.P.Z.) 7 : : < : : : : : : : : : : : : : : : : : : : T f.P.H./ ] | ! < ! [ U O ",
"s n.v.h s * C f.`.] ) / ` ) 7 & : : : : : : : : : : : : : : : : : : : : : ! ` / / ) W.U.L : ! ' U # ",
"s s c.M.s & C d.'._.] ~ ) ) 7 # : : : : : : : : : : : : : : : : : : : : : ! ` / ) W.'.K.L : : 4 3 > ",
"a u 3.[.M.6 c d.'.'.P.U.S.) 7 > : : : : : : : : : : : : : : : : : : : : : ! f.L.L.`.oXU.L , q i t : ",
"4.2.v.[.n.6 v | L.`.'.'.W.) 7 & : : : : : : : : : : : : : : : : : : : : : K F.'.'.'.P.f.~ : p k p # ",
"(.[.`.n.s 5 D ) ' P.`.'.W.) 7 # > : : : : : : : : : : : : : : : : : : : : K S.'.`.(.} / ! 2 p s i # ",
"s M.n.s s ^ b b [ ) P.oXW.) 7 > < : : : : : : : : : : : : : : : : : : : : K F.oX`.] [ P 7 ) f t # O ",
"a M.v.a s ' m # b ) } p.} ) 7 & : : : : : : : : : : : : : : : : : : : : : ! | p.p.[ D 2 2 ) m.z N eX",
"s M.v.u s ' B O # B ~ / ( ) 7 # : : : : : : : : : : : : : : : : : : : : : ! ( ~ ~ I 2 o 7 ' ].+.n ~.",
"a M.n.h j ^ b > 8 O W | ] ) 7 > : : : : : : : : : : : : : : : : : : : : : ! [ | ] > 5 6 4 ! !.&.. . ",
"a n.[.`.`.r   o.(.< w.+XT.) 7 & : : : : : : : : : : : : : : : : : : : : : K S.'.(.3 w.0.. 2 /.&.. : ",
"M.`.M.l 2.* x p.(.3 w.+XW.) 7 # > O : : : : O : : : : O : : : : O : : O : L S.+X(.3 w.L.Z : g v.*.# ",
"+XM.l a a & D h.(.2 r.@XW.) 7 O 7 B : b 7 2 B > 9 b : B 2 7 b : B 7 7 b : K F.oX(.3 9.Y.~ : y n.V.. ",
"M.l u s s * C h.(.1 5.].L.) 7 > B ) 7 ^ I b [ b E ! 7 [ b P ) 7 ) B B ) : K l.(.P.3 9.Y.L : d n.q.= ",
"s s s s s & C h.(.3 U [ ) ) 2 B [ ) ) ) ) ) ) ) ) ) ) ) ) ) ) ) ) ) [ ! : ! [ ` ) , e.Y.L : b.c.a s ",
"N.N.W.N.N.e c k.(.> S ( ( ) 5 D ( / / / ) ) ) / / / / / ) / / / / / ( L < ! ` / ~ + r.Q.L : /.`.N.N.",
"&.&.$.$.&.1 Z _ $.*.t.K.s.) 4 @.Z.Z.Z.Z.Z.Z.s.Z.Z.Z.Z.Z.Z.Z.Z.Z.Z.Z.Z.6.: T d.H.H.-.$.:.! : z $.&.&.",
"n n n n n > P T 7 P.!.(.U.) = 1.$X}.}.}.}.}.}.}.}.}.}.}.}.}.}.}.}.}.$X/., K l.(.W.].F c ) : 0 n n n ",
"qXqXqXqXqXn v [ ) ) ) ) ) ) = i.fXqXqXqXqXqXqXqXqXqXqXqXqXqXqXqXqXqXwX6X> R [ ) ) ) ) [ ! : 5XfXqXqX",
"qXqXqXqXqXn v [ ) ) ) ) ` ) = i.fXqXqXqXqXqXqXqXqXqXqXqXqXqXqXqXqXqXwX6X< R [ ) ) ) ) [ ! : 5XwXqXqX",
"qXqXqXqXwX7 v [ [ [ [ [ [ [ . u.fXqXqXqXqXqXqXqXqXqXqXqXqXqXqXqXqXqXwX6X. ! [ [ [ [ [ [ ! . 5XwXqXqX",
"qXqXqXqXqX#.B U U U U U U P V x.wXqXqXqXqXqXqXqXqXqXqXqXqXqXqXqXqXqXqX9XX.P U U U U U U P V 6XqXqXqX",
"qXqXqXqXqXfXy.O 3 3 3 3 : 3 6XwXqXqXqXqXqXqXqXqXqXqXqXqXqXqXqXqXqXqXqXqXqXX.O 3 3 3 3 : n qXqXqXqXqX",
"qXqXqXqXqXqX0X6X6X6X6X6X6X6XqXqXqXqXqXqXqXqXqXqXqXqXqXqXqXqXqXqXqXqXqXqXqX9X6X6X6X6X6X6X9XqXqXqXqXqX",
"qXqXqXqXqXqXqXwXwXwXwXwXwXwXqXqXqXqXqXqXqXqXqXqXqXqXqXqXqXqXqXqXqXqXqXqXqXqXwXwXwXwXwXwXwXqXqXqXqXqX",
"qXqXqXqXqXqXqXqXqXqXqXqXqXqXqXqXqXqXqXqXqXqXqXqXqXqXqXqXqXqXqXqXqXqXqXqXqXqXqXqXqXqXqXqXqXqXqXqXqXqX",
"qXqXqXqXqXqXqXqXqXqXqXqXqXqXqXqXqXqXqXqXqXqXqXqXqXqXqXqXqXqXqXqXqXqXqXqXqXqXqXqXqXqXqXqXqXqXqXqXqXqX"
};
